<?xml version="1.0" encoding="UTF-8" standalone="no"?>
<svg xmlns="http://www.w3.org/2000/svg" height="54px" width="46px" version="1.1" xmlns:xlink="http://www.w3.org/1999/xlink" viewBox="0 0 46 54"><!-- Generator: Sketch 44.1 (41455) - http://www.bohemiancoding.com/sketch -->
 <title>import</title>
 <desc>Created with Sketch.</desc>
 <g id="02-Product-page" fill-rule="evenodd" fill="none">
  <g id="MAAS-page" transform="translate(-361 -1205)">
   <g id="06-Get-started" transform="translate(-14 1079)">
    <g id="import" transform="translate(368 123)">
     <rect id="rect4782-2" transform="translate(30 30) rotate(90) translate(-30 -30)" height="58.776" width="58.776" y=".61225" x=".61225"/>
     <path id="path4643-2" fill-rule="nonzero" fill="#fff" d="m17.748 12.856l-0.007 0.002c-3.081 0.035-5.335-0.074-7.179 0.943-0.9213 0.509-1.6506 1.369-2.0539 2.443s-0.5489 2.349-0.5489 3.959v29.389c0 1.611 0.1456 2.885 0.5489 3.96 0.4033 1.074 1.1326 1.934 2.0539 2.443 1.844 1.017 4.098 0.909 7.179 0.944h0.007 24.504 0.007c3.081-0.035 5.335 0.073 7.178-0.944 0.922-0.509 1.651-1.369 2.055-2.443 0.403-1.075 0.548-2.349 0.548-3.96v-29.389c0-1.61-0.145-2.885-0.548-3.959-0.404-1.074-1.133-1.934-2.055-2.443-1.843-1.017-4.097-0.908-7.178-0.943l-0.007-0.002-7.354 0.002v2.449l7.332-0.002c3.095 0.036 5.126 0.145 6.025 0.64 0.449 0.248 0.706 0.524 0.944 1.16 0.239 0.637 0.393 1.648 0.393 3.098v29.389c0 1.451-0.154 2.462-0.393 3.099-0.238 0.636-0.495 0.912-0.944 1.16-0.897 0.494-2.926 0.603-6.01 0.639h-24.476-0.014c-3.084-0.036-5.113-0.145-6.01-0.639-0.449-0.248-0.704-0.524-0.943-1.16-0.239-0.637-0.394-1.648-0.394-3.099v-29.389c0-1.45 0.155-2.461 0.394-3.098 0.239-0.636 0.494-0.912 0.943-1.16 0.897-0.495 2.926-0.604 6.01-0.64l7.347 0.002v-2.449l-7.354-0.002z"/>
     <polygon id="path4237" fill-rule="nonzero" points="28.775 3.0612 28.775 33.673 31.224 33.673 31.224 3.0612" fill="#fff"/>
     <path id="path5588-9-2-96-04" fill-rule="nonzero" fill="#fff" d="m37.347 28.776l-14.694 0.004c1.022 2.235 2.165 4.51 3.428 6.826 1.266 2.295 2.572 4.508 3.918 6.639 1.32-2.131 2.613-4.344 3.879-6.639 1.264-2.317 2.42-4.593 3.469-6.829v-0.001z"/>
    </g>
   </g>
  </g>
 </g>
</svg>
